<svg xmlns="http://www.w3.org/2000/svg" width="80" height="50" viewBox="0 0 80 50"><path fill="gray" d="M35.496 36.04l5.25 4.605 5.25-4.605M5 10h70v22H5z"/><g fill="#FFF"><path d="M18.368 21.914h.205c.44.968.984 1.583 1.733 1.583.748 0 1.095-.504 1.095-.97 0-.63-.425-.874-1.378-1.197-.772-.268-1.567-.527-1.567-1.52 0-1.008.772-1.646 1.812-1.646.45 0 .843.11 1.11.23l.26-.276h.173v1.654h-.212c-.362-.89-.835-1.378-1.45-1.378-.52 0-.953.34-.953.93 0 .606.465.827 1.347 1.11.732.244 1.512.528 1.512 1.528 0 .85-.504 1.772-1.843 1.772-.433 0-.937-.126-1.26-.292l-.41.323h-.173v-1.85zM25.25 21.016c0-1.662 1.23-2.868 2.79-2.868.542 0 1.015.15 1.354.34l.284-.355h.19v1.85h-.206c-.386-1.015-.914-1.598-1.702-1.598-.89 0-1.662.82-1.662 2.544 0 1.692.945 2.44 1.843 2.44.852 0 1.42-.52 1.765-1.26l.213.103c-.347.788-1.04 1.536-2.245 1.536-1.59 0-2.623-1.096-2.623-2.734zM34.78 22.993c0 .3.148.402.787.425v.197h-2.544v-.197c.662-.023.82-.142.82-.425v-4.096c0-.284-.16-.4-.82-.425v-.197h2.426c1.59 0 2.134.6 2.134 1.3 0 .654-.402 1.15-1.528 1.34v.022c1.08.063 1.308.513 1.41 1.206l.07.567c.095.59.23.685.844.708v.19c-.197.03-.433.054-.614.054-.985 0-1.158-.276-1.22-.977l-.064-.662c-.07-.78-.315-.97-1.182-.97h-.52v1.94zm.582-2.166c1 0 1.22-.417 1.22-1.206 0-.716-.314-1.11-1.3-1.11h-.503v2.316h.582zM41.023 20.96c0-1.693 1.174-2.812 2.6-2.812 1.465 0 2.6 1.08 2.6 2.78 0 1.702-1.174 2.82-2.6 2.82-1.465 0-2.6-1.078-2.6-2.787zm4.152-.015c0-1.867-.63-2.56-1.583-2.56s-1.512.693-1.512 2.56c0 1.875.63 2.568 1.576 2.568.952 0 1.52-.693 1.52-2.568zM49.19 23.418c.66-.023.81-.142.81-.425v-4.096c0-.284-.148-.4-.81-.425v-.197h2.543v.197c-.677.024-.795.134-.795.425v4.482h.646c1.07 0 1.44-.418 1.875-1.616l.204.008-.062 1.843H49.19v-.197zM56.49 23.418c.662-.023.81-.142.81-.425v-4.096c0-.284-.148-.4-.81-.425v-.197h2.544v.197c-.677.024-.795.134-.795.425v4.482h.645c1.07 0 1.44-.418 1.875-1.616l.205.008-.062 1.843H56.49v-.197z"/></g><path fill="none" stroke="#EDECEB" stroke-miterlimit="10" d="M9.5 13.5h61v15h-61z"/></svg>