<svg xmlns="http://www.w3.org/2000/svg" width="230" height="95" viewBox="0 0 230 95"><path fill="#4D4D4D" d="M4 6h220v82H4z"/><path fill="#D5D3D2" d="M216.18 13.114v68.294H11.298V13.114H216.18m1.043-1.043H10.256v70.38h206.967V12.07z"/><path fill="#3D3935" stroke="#D5D3D2" stroke-width="1.043" stroke-miterlimit="10" d="M92.104 51.14v30.79"/><path fill="#3D3935" stroke="#D5D3D2" stroke-width="1.151" stroke-miterlimit="10" d="M172.39 13.113V50.65"/><path fill="none" stroke="#D5D3D2" stroke-miterlimit="10" d="M11 51.5h206"/><g fill="#FFF"><path d="M31.993 24.104l1.073 9.886c.16 1.415.16 1.986.183 3.014h.16c0-1.712.045-2.283.16-3.63l.775-9.27h2.123l-1.872 16.118H32.13l-.89-8.767c-.093-.913-.093-1.804-.093-2.81h-.205c0 .87 0 2.056-.046 2.56l-.867 9.017h-2.42l-1.805-16.118h2.078l.822 10.114c.114 1.21.114 1.804.137 2.808h.137c0-1.46.022-2.17.113-3.036l.982-9.886h1.918zM43.224 24.104l2.49 16.118h-2.08l-.41-2.968h-2.42l-.365 2.968h-2.056l2.26-16.118h2.58zm-1.392 3.038c-.068 2.1-.068 2.328-.114 2.603l-.685 5.548h1.917l-.8-5.594c-.09-.618-.113-1.233-.136-2.558h-.182zM46.763 24.104h7.123V26h-2.51v14.223h-2.17V26h-2.443v-1.896zM56.168 28.557c0-1.415 0-4.61 3.607-4.61 3.333 0 3.333 2.807 3.333 3.948v2.055h-2.123v-2.488c0-.525 0-1.666-1.324-1.666-1.346 0-1.346 1.187-1.346 2.01v8.902c0 .913 0 1.872 1.3 1.872 1.348 0 1.348-1.05 1.348-2.032v-2.99h2.146v2.717c0 1.826-.48 4.155-3.54 4.155-1.186 0-2.305-.457-2.898-1.438-.502-.822-.502-1.804-.502-2.648v-7.787zM68.68 24.104v6.553h1.985v-6.553h2.123v16.118h-2.146v-7.488H68.68v7.488h-2.124V24.104h2.123zM81.668 28.466c0-1.462.068-2.512.8-3.356.66-.754 1.644-1.12 2.647-1.12.89 0 1.758.207 2.42.914.89.937.89 2.055.89 4.042v7.647c0 1.188-.045 3.79-3.515 3.79-.434 0-2.078 0-2.854-1.575-.39-.73-.39-1.507-.39-2.283v-8.06zm4.657-.16c0-1.393 0-2.466-1.233-2.466-.158 0-.912 0-1.186.776-.115.32-.115.662-.115 1.666v8.653c0 .8.07 1.69 1.233 1.69 1.256 0 1.302-1.052 1.302-2.193v-8.126zM92.102 24.104h2.077V36.57c0 1.073 0 2.146 1.3 2.146 1.28 0 1.28-1.072 1.28-2.283v-12.33h2.1V36.32c0 1.117 0 4.154-3.447 4.154-3.31 0-3.31-2.9-3.31-3.768V24.104zM102.785 24.104h3.47c2.603 0 2.9.708 2.9 3.904 0 2.83-.07 3.995-1.804 3.973v.093c1.53.182 1.735 1.05 1.735 3.196v1.756c0 1.94.046 2.237.412 3.196h-2.215c-.184-.936-.343-1.735-.343-3.378v-1.142c0-.617-.023-1.896-.275-2.42-.25-.48-.502-.48-1.758-.48v7.42h-2.123V24.104zm2.147 1.94v4.98h1.004c1.073 0 1.12-.48 1.12-3.15 0-1.782-.115-1.828-1.028-1.828h-1.096zM122.44 24.082h2.1l-2.464 16.14h-2.49l-2.487-16.14h2.122l1.21 9.292c.23 1.826.273 2.03.32 3.584h.23c.02-1.483.02-1.553.317-3.743l1.14-9.133zM129.61 24.104v16.118h-2.103V24.104h2.102zM133.467 24.104h3.904c2.284 0 2.466 1.302 2.466 2.603v10.73c0 2.123-.547 2.785-2.283 2.785h-4.086V24.104zm2.123 1.964v12.168h1.416c.615 0 .685-.364.685-.89v-10.16c0-.616-.02-1.118-.867-1.118h-1.233zM143.465 24.104h5.32v2.032h-3.15v4.703h2.83v1.985h-2.83v5.365h3.173v2.03h-5.343V24.105zM151.912 28.466c0-1.462.068-2.512.8-3.356.66-.754 1.643-1.12 2.647-1.12.89 0 1.757.207 2.42.914.89.937.89 2.055.89 4.042v7.647c0 1.188-.046 3.79-3.516 3.79-.434 0-2.078 0-2.854-1.575-.388-.73-.388-1.507-.388-2.283v-8.06zm4.657-.16c0-1.393 0-2.466-1.234-2.466-.16 0-.912 0-1.187.776-.115.32-.115.662-.115 1.666v8.653c0 .8.068 1.69 1.232 1.69 1.256 0 1.302-1.052 1.302-2.193v-8.126z"/></g><g fill="#FFF"><path d="M107.89 68.486h-2.222l-.332.88c-.392 1.02-.274 1.243.586 1.38v.235h-2.24v-.233c.637-.157.91-.51 1.292-1.458l2.006-5.08h.558l2.074 5.694c.215.56.372.744 1.105.843v.234h-3.17v-.233c.9-.04 1.047-.235.87-.764l-.528-1.497zm-.1-.294l-.928-2.69h-.05l-1.027 2.69h2.006zM119.062 65.54h-.02v3.798c0 .938.186 1.28 1.154 1.41v.233h-2.593v-.233c.89-.138 1.106-.47 1.106-1.41v-3.815c0-.5-.296-.91-1.107-.93v-.244h2.025l3.718 4.97h.02v-3.326c0-.93-.264-1.28-1.223-1.408v-.235h2.612v.234c-.9.146-1.047.48-1.047 1.408v5.127h-.45l-4.196-5.58zM127.643 70.736c.822-.03 1.018-.176 1.018-.528V65.12c0-.353-.194-.5-1.017-.528v-.244h5.528l.03 2.084-.245.01c-.47-1.243-.8-1.8-1.946-1.8h-1.186v2.77h.49c.743 0 1.086-.188 1.36-1.195h.225v2.69h-.227c-.273-1.008-.616-1.203-1.36-1.203h-.49v2.984h1.156c1.35 0 1.78-.626 2.27-1.957l.254.012-.06 2.24h-5.802v-.246zM141.018 65.463c-.215-.636-.38-.812-1.008-.88v-.235h2.916v.235c-.793.038-.92.233-.763.713l1.34 4.267h.05l1.154-3.66c.303-.938.146-1.184-.705-1.32v-.234h2.388v.234c-.704.136-.998.46-1.312 1.418l-1.663 5.127h-.538l-1.477-4.482-1.654 4.48h-.538l-1.81-5.703c-.187-.577-.353-.725-1.057-.84v-.236h2.936v.234c-.763.038-.82.264-.685.713l1.272 4.286h.04l1.32-3.474-.204-.647zM153.307 70.736c.822-.03 1.018-.166 1.018-.528V65.12c0-.353-.195-.5-1.018-.528v-.244h3.12v.244c-.792.03-.938.156-.938.528v2.27h2.895v-2.27c0-.372-.146-.5-.93-.528v-.244h3.11v.244c-.82.03-1.017.176-1.017.528v5.088c0 .362.196.5 1.018.528v.245h-3.11v-.244c.782-.03.93-.146.93-.528v-2.515h-2.897v2.515c0 .382.145.5.938.528v.245h-3.12v-.244zM163.697 70.736c.822-.03 1.018-.176 1.018-.528V65.12c0-.353-.195-.5-1.018-.528v-.244h5.527l.03 2.084-.245.01c-.47-1.243-.803-1.8-1.948-1.8h-1.184v2.77h.49c.742 0 1.085-.188 1.36-1.195h.224v2.69h-.225c-.274-1.008-.617-1.203-1.36-1.203h-.49v2.984h1.155c1.35 0 1.78-.626 2.27-1.957l.256.012-.06 2.24h-5.802v-.246zM176.465 68.486h-2.22l-.334.88c-.39 1.02-.272 1.243.588 1.38v.235h-2.24v-.233c.637-.157.91-.51 1.29-1.458l2.007-5.08h.56l2.073 5.694c.215.56.37.744 1.105.843v.234h-3.17v-.233c.9-.04 1.047-.235.87-.764l-.528-1.497zm-.098-.294l-.93-2.69h-.05l-1.026 2.69h2.007zM181.865 70.736c.822-.03 1.008-.176 1.008-.528V65.12c0-.353-.186-.5-1.008-.528v-.244h3.16v.244c-.84.03-.987.167-.987.528v5.567h.802c1.332 0 1.79-.518 2.33-2.006l.254.012-.078 2.29h-5.48v-.246zM191.072 70.736c.86-.02 1.105-.176 1.105-.528V64.64h-.37c-.804 0-1.243.607-1.763 1.84l-.244-.02.05-2.112h5.81l.06 2.113-.245.02c-.49-1.184-.94-1.84-1.76-1.84h-.383v5.568c0 .353.255.51 1.115.528v.245h-3.376v-.244zM198.88 70.736c.822-.03 1.02-.166 1.02-.528V65.12c0-.353-.197-.5-1.02-.528v-.244h3.122v.244c-.793.03-.94.156-.94.528v2.27h2.897v-2.27c0-.372-.147-.5-.93-.528v-.244h3.11v.244c-.822.03-1.018.176-1.018.528v5.088c0 .362.195.5 1.018.528v.245h-3.11v-.244c.782-.03.93-.146.93-.528v-2.515h-2.897v2.515c0 .382.146.5.94.528v.245h-3.122v-.244z"/></g><g fill="#DBD9D8"><path d="M23.956 70.55c0-.638.208-1.343.208-1.8 0-.887-.613-1.37-2.1-1.486v-.405c1.487-.118 2.1-.55 2.1-1.436 0-.456-.208-1.122-.208-1.748 0-1.553 1.11-2.322 3.222-2.388v.287c-1.526.118-1.774.796-1.774 1.983 0 .365.065.887.065 1.422 0 1.305-.64 1.76-2.428 2.01v.155c1.75.222 2.427.744 2.427 2.05 0 .533-.066 1.107-.066 1.473 0 1.213.248 1.93 1.774 2.035v.3c-2.113-.038-3.222-.86-3.222-2.452zM28.326 70.668c1.188-.026 1.578-.183 1.578-.64v-6.014c0-.68-.26-.913-1.617-.926v-.3l3.105-.248v7.488c0 .456.378.612 1.578.64v.312h-4.644v-.312zM34.744 70.316c0-.496.405-.888.913-.888.496 0 .9.392.9.874 0 .496-.404.887-.9.887-.508 0-.913-.39-.913-.874zM38.58 69.402c0-.534.366-.98.953-.98.574 0 .848.42.848.876 0 .443-.338.782-.6.926.275.313.85.574 1.5.574 1.228 0 1.698-.85 1.698-2.322 0-1.448-.666-2.113-1.813-2.113-.705 0-1.24.234-1.774.573l-.273-.195.156-4.108h4.997l-.157 1.292h-4.357l-.104 2.49c.548-.325 1.266-.52 1.905-.52 2.14 0 3 1.148 3 2.504 0 1.357-1.083 2.78-3.118 2.78-1.555 0-2.86-.68-2.86-1.776zM49.576 70.668c1.188-.183 1.46-.626 1.46-1.878v-5.18c0-.626-.364-1.122-1.46-1.147v-.327h3.3l2.584 6.758h.066l2.465-6.758h3.132v.327c-1.096.038-1.344.234-1.344.704v6.783c0 .47.248.666 1.344.705v.326h-4.097v-.325c1.005-.04 1.2-.21 1.2-.705v-6.875h-.065l-2.96 7.92h-.483l-3.144-7.933h-.08v5.728c0 1.252.223 1.695 1.476 1.878v.313h-3.394v-.312zM62.752 70.682c.757-.014.952-.118.952-.483v-4.215c0-.39-.195-.64-.952-.652v-.3l2.322-.09v5.256c0 .364.157.47.94.482v.3H62.75v-.3zm.73-7.815c0-.522.353-.9.862-.9.522 0 .86.353.86.874s-.338.888-.86.888c-.51 0-.86-.327-.86-.86zM67.41 70.682c.757-.014.94-.118.94-.483v-4.215c0-.39-.184-.64-.94-.652v-.3l2.283-.09v1.173c.626-.718 1.422-1.213 2.283-1.213 1.004 0 1.565.64 1.565 1.84v3.456c0 .364.17.47.928.482v.3h-3.08v-.3c.6-.014.784-.118.784-.483v-3.12c0-.98-.327-1.383-1.083-1.383-.55 0-1.02.34-1.37.797v3.704c0 .365.168.47.755.483v.3H67.41v-.298zM76.045 70.316c0-.496.405-.888.914-.888.495 0 .9.392.9.874 0 .496-.405.887-.9.887-.51 0-.915-.39-.915-.874zM79.1 72.703c1.538-.104 1.773-.822 1.773-2.035 0-.365-.053-.94-.053-1.474 0-1.305.666-1.827 2.414-2.05v-.155c-1.774-.25-2.414-.705-2.414-2.01 0-.535.053-1.057.053-1.422 0-1.188-.235-1.865-1.774-1.983v-.287c2.112.065 3.234.835 3.234 2.388 0 .626-.223 1.292-.223 1.748 0 .887.614 1.317 2.103 1.435v.404c-1.488.117-2.102.6-2.102 1.486 0 .457.224 1.162.224 1.8 0 1.593-1.122 2.415-3.235 2.453v-.3z"/></g><path fill="#DBD9D8" d="M193.61 40.935c.298-.426.61-.837.927-1.246.315-.41.644-.807.965-1.21l.993-1.182c.33-.396.677-.773 1.015-1.16.672-.778 1.385-1.514 2.078-2.27.702-.748 1.42-1.48 2.143-2.207v1.154c-.722-.728-1.44-1.458-2.143-2.205-.692-.758-1.407-1.493-2.08-2.272-.337-.387-.683-.765-1.015-1.158l-.992-1.183c-.32-.404-.648-.8-.963-1.21-.316-.41-.63-.82-.928-1.247.426.298.837.61 1.245.927.41.315.808.644 1.21.964l1.184.994c.393.33.77.677 1.158 1.015.778.67 1.514 1.385 2.27 2.077.748.702 1.48 1.42 2.205 2.144l.58.578-.58.576c-.727.722-1.458 1.44-2.206 2.142-.756.694-1.493 1.406-2.27 2.08-.388.336-.765.684-1.16 1.014l-1.182.992c-.403.32-.8.65-1.21.965-.408.315-.82.63-1.246.928z"/></svg>