<svg xmlns="http://www.w3.org/2000/svg" xmlns:xlink="http://www.w3.org/1999/xlink" width="250" height="36" viewBox="0 0 250 36"><symbol id="a" viewBox="-114.89 -12.5 229.78 25"><path fill="none" stroke="#B2ADA6" stroke-miterlimit="10" d="M-.61 12h115v-24h-115"/><path fill="#3D3935" d="M-.87 11.52v-23.04H-113.91v23.04H-.87m.98.98h-115v-25h115v25z"/><text transform="matrix(1 0 0 -1 -65.875 -3.842)" fill="#3D3935" font-family="'ChronicleDeck-Roman'" font-size="11.581">list view</text><text transform="matrix(1 0 0 -1 43.682 -3.522)" fill="#B2ADA6" font-family="'ChronicleDeck-Roman'" font-size="11.581">map view</text><path fill="#B2ADA6" d="M28.744 6.495c-2.558 0-4.632-2.074-4.632-4.634 0-2.557 4.632-8.354 4.632-8.354s4.632 5.798 4.632 8.355c0 2.56-2.074 4.635-4.632 4.635zm0-6.72c-1.022 0-1.853.83-1.853 1.854 0 1.022.832 1.852 1.855 1.852 1.022 0 1.852-.83 1.852-1.853 0-1.024-.83-1.854-1.852-1.854z"/><path fill="#3D3935" d="M-89.927-1.034h1.618v1.62h-1.617v-1.62zm0-3.235h1.618v1.62h-1.617v-1.62zm0 6.474h1.618V3.82h-1.617V2.204zm3.236-3.238h11.323v1.62H-86.69v-1.62zm0-3.235h11.323v1.62H-86.69v-1.62zm0 8.09V2.204h11.323V3.82H-86.69z"/></symbol><use xlink:href="#a" width="229.78" height="25" x="-114.89" y="-12.5" transform="matrix(1 0 0 -1 124.5 18)" overflow="visible"/></svg>