<svg xmlns="http://www.w3.org/2000/svg" width="228" height="80" viewBox="0 0 228 80"><path fill="#4D4D4D" d="M3 1h220v77H3z"/><g fill="#FFF"><path d="M61.233 18.446v6.943h2.104v-6.944h2.25v17.08h-2.273V27.59h-2.08v7.936h-2.25v-17.08h2.25zM69.843 18.446h5.637V20.6h-3.34v4.984h3v2.104h-3v5.686h3.363v2.152h-5.66v-17.08zM82.905 18.446l2.636 17.08h-2.2l-.435-3.145H80.34l-.387 3.146h-2.178l2.396-17.08h2.735zm-1.475 3.218c-.074 2.226-.074 2.468-.122 2.76l-.726 5.878h2.033l-.848-5.928c-.097-.653-.12-1.307-.145-2.71h-.192zM90.668 18.423v15.023h3.727v2.08h-6V18.423h2.273zM94.418 18.446h7.55v2.01h-2.663v15.07h-2.297v-15.07h-2.59v-2.01zM106.608 18.446v6.943h2.104v-6.944h2.25v17.08h-2.274V27.59h-2.08v7.936h-2.25v-17.08h2.25zM120.395 23.164c0-1.5 0-4.887 3.822-4.887 3.532 0 3.532 2.976 3.532 4.186v2.177h-2.25v-2.637c0-.557 0-1.766-1.403-1.766-1.428 0-1.428 1.258-1.428 2.13V31.8c0 .967 0 1.983 1.378 1.983 1.428 0 1.428-1.113 1.428-2.153v-3.17h2.273v2.88c0 1.936-.51 4.402-3.75 4.402-1.26 0-2.444-.483-3.073-1.523-.532-.87-.532-1.91-.532-2.806v-8.25zM131.4 23.067c0-1.548.073-2.66.847-3.556.702-.798 1.74-1.185 2.807-1.185.943 0 1.862.218 2.564.968.942.99.942 2.177.942 4.28v8.106c0 1.257-.048 4.015-3.726 4.015-.46 0-2.2 0-3.023-1.67-.41-.773-.41-1.596-.41-2.42v-8.538zm4.936-.17c0-1.475 0-2.612-1.307-2.612-.17 0-.97 0-1.26.823-.12.338-.12.7-.12 1.766v9.17c0 .846.072 1.79 1.307 1.79 1.33 0 1.38-1.113 1.38-2.323V22.9zM146.543 18.446l2.637 17.08h-2.202l-.435-3.145h-2.565l-.387 3.146h-2.177l2.396-17.08h2.733zm-1.477 3.218c-.072 2.226-.072 2.468-.12 2.76l-.727 5.878h2.03l-.846-5.928c-.097-.653-.12-1.307-.145-2.71h-.194zM151.983 23.164c0-1.5 0-4.887 3.822-4.887 3.532 0 3.532 2.976 3.532 4.186v2.177h-2.25v-2.637c0-.557 0-1.766-1.402-1.766-1.428 0-1.428 1.258-1.428 2.13V31.8c0 .967 0 1.983 1.38 1.983 1.427 0 1.427-1.113 1.427-2.153v-3.17h2.273v2.88c0 1.936-.51 4.402-3.75 4.402-1.258 0-2.443-.483-3.072-1.523-.532-.87-.532-1.91-.532-2.806v-8.25zM165.238 18.446v6.943h2.104v-6.944h2.25v17.08h-2.274V27.59h-2.08v7.936h-2.25v-17.08h2.25z"/></g><g fill="#FFF"><path d="M59.232 61.015c.87-.03 1.077-.176 1.077-.56v-5.392c0-.374-.208-.53-1.078-.56v-.26h3.307v.26c-.84.03-.996.165-.996.56v2.405h3.07v-2.405c0-.395-.156-.53-.986-.56v-.26h3.298v.26c-.872.03-1.08.186-1.08.56v5.392c0 .384.208.53 1.08.56v.26h-3.298v-.26c.83-.03.985-.155.985-.56V57.79h-3.07v2.665c0 .404.157.53.996.56v.26H59.23v-.26zM70.76 61.015c.87-.03 1.076-.187 1.076-.56v-5.392c0-.374-.207-.53-1.077-.56v-.26h5.857l.03 2.21-.26.01c-.496-1.318-.85-1.91-2.06-1.91H73.07v2.936h.52c.787 0 1.15-.198 1.44-1.266h.24v2.852h-.24c-.29-1.068-.653-1.275-1.44-1.275h-.52v3.163h1.225c1.43 0 1.887-.663 2.405-2.074l.27.01-.063 2.375H70.76v-.26zM84.807 58.63h-2.354l-.353.933c-.415 1.078-.29 1.316.622 1.462v.25h-2.374v-.25c.674-.166.963-.54 1.37-1.545l2.124-5.382h.59l2.2 6.035c.228.59.394.788 1.17.892v.25h-3.358v-.25c.954-.04 1.11-.25.923-.81l-.56-1.585zm-.104-.31l-.986-2.853h-.05l-1.09 2.852h2.126zM93.368 60.455c0 .395.196.53 1.037.56v.26h-3.35v-.26c.872-.03 1.08-.187 1.08-.56v-5.392c0-.374-.208-.53-1.08-.56v-.26h3.194c2.094 0 2.81.788 2.81 1.71 0 .86-.53 1.515-2.012 1.764v.03c1.42.084 1.72.675 1.855 1.587l.094.747c.124.778.3.903 1.11.934v.25c-.26.04-.57.072-.81.072-1.297 0-1.524-.363-1.607-1.286l-.084-.87c-.093-1.027-.414-1.276-1.555-1.276h-.684v2.55zm.767-2.85c1.318 0 1.607-.55 1.607-1.588 0-.943-.414-1.462-1.71-1.462h-.664v3.05h.767zM102.625 61.015c.912-.02 1.172-.187 1.172-.56v-5.9h-.394c-.85 0-1.317.644-1.866 1.95l-.26-.02.05-2.24h6.16l.063 2.24-.26.02c-.518-1.255-.994-1.95-1.866-1.95h-.403v5.9c0 .373.27.54 1.184.56v.26h-3.578v-.26zM122.8 57.552c.528 0 .81.32.81.746 0 .363-.26.653-.633.653-.343 0-.603-.258-.603-.57 0-.092.02-.154.062-.227l-.04-.03c-.374.186-.728.652-1.06 1.306.56 1.005.924 1.347 1.37 1.347.26 0 .425-.072.736-.32l.135.186c-.55.55-1.017.81-1.483.81-.726 0-1.048-.353-1.473-1.09-.477.653-1.13 1.09-1.98 1.09-1.38 0-2.01-.85-2.01-1.732 0-.953.715-1.554 1.845-1.937-.487-.53-.8-.955-.8-1.535 0-.985.778-1.69 1.898-1.69 1.037 0 1.64.61 1.64 1.317 0 .674-.447 1.14-1.504 1.648.57.487 1.107 1.09 1.45 1.66.468-.998 1.05-1.63 1.64-1.63zm-5.01 1.907c0 .82.56 1.368 1.35 1.368.55 0 .943-.238 1.337-.715-.415-.706-1.12-1.545-1.814-2.157-.602.373-.872.82-.872 1.503zm2.522-3.62c0-.632-.28-1.016-.84-1.016-.478 0-.84.374-.84.965 0 .517.32.963.87 1.533.633-.466.81-.87.81-1.482zM132.625 59.035h.27c.58 1.274 1.296 2.083 2.28 2.083s1.443-.663 1.443-1.274c0-.83-.56-1.15-1.815-1.576-1.016-.354-2.062-.695-2.062-2.002 0-1.327 1.017-2.167 2.385-2.167.592 0 1.11.144 1.463.3l.342-.363h.23v2.178h-.28c-.478-1.172-1.1-1.814-1.91-1.814-.684 0-1.254.447-1.254 1.225 0 .798.612 1.09 1.773 1.462.964.32 1.99.695 1.99 2.012 0 1.12-.663 2.332-2.426 2.332-.57 0-1.234-.165-1.66-.384l-.54.426h-.228v-2.44zM141.676 57.78c0-2.23 1.544-3.702 3.422-3.702 1.93 0 3.42 1.42 3.42 3.66s-1.544 3.712-3.42 3.712c-1.93 0-3.422-1.42-3.422-3.67zm5.464-.02c0-2.458-.83-3.37-2.084-3.37s-1.99.912-1.99 3.37c0 2.468.828 3.38 2.073 3.38 1.253 0 2-.912 2-3.38zM153.348 59.21v-4.146c0-.374-.207-.53-1.067-.56v-.26h3.298v.26c-.84.03-.995.165-.995.56v4.033c0 1.39.84 1.897 1.98 1.897.52 0 .964-.166 1.275-.477.363-.363.55-.8.55-1.587v-2.944c0-.985-.28-1.358-1.296-1.493v-.25h2.768v.25c-.943.154-1.1.508-1.1 1.493v3.12c0 1.338-.86 2.344-2.643 2.344-1.732 0-2.77-.788-2.77-2.24zM163.454 61.015c.872-.03 1.07-.187 1.07-.56v-5.392c0-.374-.198-.53-1.07-.56v-.26h3.35v.26c-.892.03-1.047.176-1.047.56v5.9h.85c1.41 0 1.898-.55 2.47-2.127l.268.01-.082 2.428h-5.808v-.26z"/></g><path fill="#D5D3D2" d="M215 9v61H12V9h203m1-1H11v63h205V8z"/><path fill="none" stroke="#D5D3D2" stroke-miterlimit="10" d="M11 44.5h205"/></svg>