<svg xmlns="http://www.w3.org/2000/svg" width="433" height="113" viewBox="0 0 433 113"><path fill="#4D4D4D" d="M5 5h422v100H5z"/><g fill="#FFF"><path d="M78.27 41.653l4.58 29.657h-3.823l-.756-5.46h-4.45l-.674 5.46h-3.78l4.158-29.657h4.747zM75.71 47.24c-.126 3.864-.126 4.285-.21 4.79l-1.26 10.207h3.527l-1.47-10.292c-.168-1.135-.21-2.27-.252-4.705h-.335zM84.78 41.653h13.104v3.486h-4.62v26.17h-3.99V45.14h-4.495v-3.487zM106.115 41.61V67.7h6.47v3.612H102.17v-29.7h3.947zM124.848 41.653l4.578 29.657h-3.822l-.756-5.46h-4.453l-.672 5.46h-3.78l4.16-29.657h4.745zm-2.563 5.587c-.127 3.864-.127 4.285-.21 4.79l-1.26 10.207h3.528l-1.47-10.292c-.17-1.135-.21-2.27-.253-4.705h-.335zM138.537 41.653l4.412 18.987c.25 1.134.42 1.975.628 2.94h.252c-.168-1.386-.336-2.772-.42-4.2l-.168-2.772-.168-14.955h3.654V71.31h-4.326l-4.873-22.222h-.253l.21 2.562.17 2.562.335 17.097h-3.654V41.652h4.2zM150.926 41.653h13.107v3.486h-4.62v26.17h-3.99V45.14h-4.497v-3.487zM174.91 41.653l4.578 29.657h-3.822l-.756-5.46h-4.453l-.672 5.46h-3.78l4.16-29.657h4.745zm-2.562 5.587c-.127 3.864-.127 4.285-.21 4.79l-1.26 10.207h3.528l-1.47-10.292c-.17-1.135-.21-2.27-.253-4.705h-.335zM183.098 65.892h3.36v4.495c0 3.948-.63 5.04-3.19 6.595v-.924c1.217-.883 1.512-1.723 1.512-4.747h-1.682v-5.418zM202.545 49.72c0-2.563 0-4.286 1.092-5.966 1.387-2.227 3.61-2.437 4.873-2.437 5.293 0 5.293 4.326 5.293 6.51v3.11h-3.613v-3.32c0-1.68-.084-3.023-1.807-3.023-1.975 0-1.975 1.807-1.975 3.276v17.056c0 1.932 0 3.57 1.934 3.57 1.975 0 1.975-1.765 1.975-2.646v-6.722h-2.395v-3.612h6.258V71.31h-2.352l-.336-1.386c-.547.673-1.387 1.85-3.57 1.85-5.377 0-5.377-5.252-5.377-7.395V49.72zM227.912 41.653l4.578 29.657h-3.82l-.758-5.46h-4.45l-.673 5.46h-3.782l4.158-29.657h4.746zm-2.562 5.587c-.125 3.864-.125 4.285-.21 4.79l-1.26 10.207h3.528l-1.47-10.292c-.167-1.135-.21-2.27-.25-4.705h-.338zM236.06 65.766h3.444v5.545h-3.445v-5.544z"/></g><g fill="#FFF"><path d="M314.674 46.55c1.514-.054 1.855-.324 1.855-.973v-9.362c0-.648-.343-.918-1.856-.973v-.45h5.816v.45c-1.55.055-1.818.307-1.818.973V46.46h1.477c2.446 0 3.294-.954 4.284-3.69l.467.018L324.76 47h-10.084v-.45zM331.377 46.55c1.514-.054 1.873-.324 1.873-.973v-9.362c0-.648-.36-.918-1.873-.973v-.45h10.172l.054 3.836-.45.018c-.864-2.287-1.476-3.313-3.583-3.313h-2.177v5.096h.9c1.367 0 1.998-.343 2.502-2.197h.414v4.95h-.415c-.504-1.853-1.135-2.214-2.502-2.214h-.9v5.49h2.123c2.486 0 3.277-1.15 4.178-3.6l.47.018-.11 4.122h-10.677v-.45zM355.77 42.408h-4.088l-.61 1.62c-.722 1.873-.507 2.287 1.08 2.54V47h-4.124v-.432c1.17-.29 1.674-.937 2.377-2.684l3.69-9.345h1.026l3.817 10.478c.396 1.026.686 1.368 2.035 1.55V47h-5.834v-.432c1.656-.072 1.926-.433 1.604-1.405l-.972-2.755zm-.18-.54l-1.71-4.95h-.09l-1.892 4.95h3.692zM370.637 45.577c0 .685.342.92 1.8.973V47h-5.815v-.45c1.512-.054 1.873-.324 1.873-.973v-9.362c0-.648-.36-.918-1.873-.973v-.45h5.545c3.637 0 4.88 1.37 4.88 2.972 0 1.494-.92 2.628-3.493 3.06v.055c2.467.144 2.988 1.17 3.223 2.754l.162 1.297c.216 1.35.522 1.567 1.927 1.62v.434c-.45.07-.99.126-1.404.126-2.252 0-2.648-.63-2.79-2.233l-.146-1.512c-.162-1.783-.72-2.215-2.7-2.215h-1.19v4.427zm1.332-4.95c2.286 0 2.79-.955 2.79-2.756 0-1.638-.72-2.538-2.97-2.538h-1.153v5.294h1.332zM387.285 36.99h-.035v6.984c0 1.73.342 2.36 2.125 2.594V47h-4.77v-.432c1.638-.253 2.032-.865 2.032-2.594v-7.02c0-.92-.54-1.676-2.033-1.712v-.45h3.727l6.843 9.147h.035v-6.123c0-1.71-.484-2.358-2.25-2.593v-.433h4.81v.434c-1.66.27-1.93.882-1.93 2.593v9.435h-.827l-7.725-10.263zM320.82 76.568c1.64-.253 2.018-.865 2.018-2.594v-7.147c0-.864-.504-1.55-2.018-1.585v-.45h4.555l3.566 9.327h.09l3.403-9.328h4.32v.45c-1.512.055-1.854.324-1.854.973v9.362c0 .648.34.92 1.853.973V77H331.1v-.45c1.388-.054 1.657-.288 1.657-.973V66.09h-.09l-4.088 10.928h-.667l-4.338-10.947h-.11v7.905c0 1.73.308 2.34 2.036 2.594V77h-4.68v-.432zM343.553 70.933c0-3.872 2.684-6.43 5.94-6.43 3.35 0 5.944 2.468 5.944 6.357 0 3.89-2.684 6.445-5.943 6.445-3.348 0-5.94-2.465-5.94-6.372zm9.488-.037c0-4.268-1.438-5.852-3.618-5.852-2.178 0-3.457 1.584-3.457 5.852 0 4.285 1.44 5.87 3.602 5.87 2.18 0 3.474-1.584 3.474-5.87zM366.252 75.577c0 .685.342.92 1.8.973V77h-5.815v-.45c1.514-.054 1.873-.324 1.873-.973v-9.362c0-.648-.36-.918-1.873-.973v-.45h5.547c3.637 0 4.88 1.37 4.88 2.972 0 1.494-.92 2.628-3.493 3.06v.055c2.468.144 2.99 1.17 3.224 2.754l.162 1.297c.215 1.35.52 1.567 1.926 1.62v.434c-.45.07-.99.126-1.404.126-2.25 0-2.646-.63-2.79-2.233l-.146-1.512c-.162-1.783-.72-2.215-2.7-2.215h-1.188v4.427zm1.332-4.95c2.287 0 2.79-.955 2.79-2.756 0-1.638-.718-2.538-2.97-2.538h-1.152v5.294h1.332zM380.2 76.55c1.513-.054 1.874-.324 1.874-.973v-9.362c0-.648-.36-.918-1.873-.973v-.45h10.173l.055 3.836-.45.018c-.864-2.287-1.476-3.313-3.583-3.313h-2.178v5.096h.9c1.367 0 1.998-.343 2.502-2.197h.413v4.95h-.414c-.505-1.853-1.136-2.214-2.503-2.214h-.9v5.49h2.123c2.486 0 3.277-1.15 4.178-3.6l.47.018-.11 4.122h-10.677v-.45z"/></g><path fill="#D5D3D2" d="M414 17v75H18V17h396m2-2H16v79h400V15z"/><path fill="#3D3935" stroke="#D5D3D2" stroke-width="2" stroke-miterlimit="10" d="M290 16v77.06"/></svg>