<svg xmlns="http://www.w3.org/2000/svg" width="258" height="107" viewBox="0 0 258 107"><g fill="#F7F6F5"><path d="M209 93H9V18.885h21.417l.18.625c.007.03.934 4.605 14.003 4.605 5.835 0 13.458-1.962 22.285-4.237C78.782 16.814 93.59 13 109 13s30.22 3.814 42.116 6.878c8.827 2.275 16.45 4.237 22.286 4.237 13.067 0 13.995-4.574 14.004-4.62l.187-.595.52-.016h20.89L208.998 93zM10.666 91.334h196.667V20.5H189c-.643 1.517-3.79 5.044-15.598 5.044-6.017 0-13.722-1.984-22.643-4.282-12.436-3.2-26.53-6.832-41.76-6.832-15.23 0-29.323 3.63-41.76 6.834-8.92 2.296-16.626 4.28-22.642 4.28-11.807 0-14.122-3.527-14.766-5.044H10.667v70.834z"/><path d="M84.89 85.39v-3.692h-1.806v3.692h-.988v-7.922h.988v3.366h1.806v-3.366h.987v7.922M93.078 85.39v-7.922h3.49v.886h-2.504v2.358h2.19v.896h-2.19v2.894h2.582v.888M106.213 85.39l-.28-1.526h-1.84l-.27 1.526h-1.02l1.705-7.922h.986l1.75 7.922h-1.03zm-1.222-6.452l-.73 4.074h1.505l-.774-4.074zM113.65 85.39v-7.922h1.01v7.034h2.322v.888M124.34 78.354v7.034h-.976v-7.034h-1.504v-.884h3.983v.884M134.917 85.39v-3.692h-1.806v3.692h-.986v-7.922h.987v3.366h1.807v-3.366h.99v7.922M132.18 64.197l-5.402-6.52c-.515-.547-1.225-.896-1.976-.896h-1.69l5.712-5.64.064-.057c.513-.508 1.208-.793 1.93-.793h2.118v-1.074h-8.52v1.074h2.075c.54 0 .812.653.43 1.034l-.185.194-7.646 7.547v-16.76h-6.502v1.072h1.42c.553 0 1 .448 1 1.002v19.81c0 .554-.447 1.002-1 1.002h-1.42v1.074H119.09v-3.798c0-1.088.43-2.13 1.2-2.902v-.002l2.02-1.992 5.494 6.63c.328.394.047.99-.468.99h-1.33v.573l-.004.002v.5H135.924V65.19h-1.63c-.817 0-1.593-.364-2.114-.995M41.896 64.19V44.38c0-.555.448-1.003 1-1.003h2.632v-1.072H34.185v1.072h2.63c.552 0 1 .448 1 1.002v19.81c0 .554-.448 1.002-1 1.002h-2.63v1.073h11.343v-1.073h-2.632c-.552 0-1-.448-1-1"/><path d="M50.71 42.305v1.072h2.63c.554 0 1.002.45 1.002 1.002v9.286H44.9v1.24h9.442v9.287c0 .55-.448 1-1 1h-2.63v1.073h11.342v-1.074h-2.63c-.554 0-1-.448-1-1V44.38c0-.554.446-1.003 1-1.003h2.63v-1.072H50.71zM83.08 64.19V54.97s.208-2.865-1.967-4.225c-2.177-1.362-6.034-1.646-8.964-.142-1.28.658-2.382 1.686-2.382 2.91 0 1.23 1.015 2.012 1.99 1.932.922-.072 1.665-.85 1.7-1.775.037-.955-.65-1.75-1.554-1.896.137-.077.283-.15.445-.22 2.33-.984 4.763-.55 5.783.582 1.247 1.38 1.37 4.363-1.13 5.09-1.888.548-5.273 1.22-6.25 1.746-1.486.8-2.087 2.186-2.087 3.596 0 1.904 1.684 3.7 4.645 3.7.913 0 1.88-.087 2.686-.216v-.975c-.354.04-.706.064-.977.064-1.94 0-2.638-1.518-2.638-2.996 0-2.49 1.79-2.804 6.616-4.478v8.601H85.5v-1.072h-1.42c-.55.002-1-.446-1-1M182.397 65.192c-.553 0-1-.448-1-1v-9.5c0-6.063-5.53-5.896-7.697-3.728-2.143 2.145-4.836 4.88-4.836 4.88V49.79h-6.503v1.075h1.422c.552 0 1 .448 1 1.253v12.326c0 .3-.448.747-1 .747h-1.42v1.075h8.922V65.19h-1.42c-.553 0-1-.447-1-1v-4.924c0-1.09.662-2.154 1.203-2.773.47-.537 3.467-4.205 4.767-4.457 1.52-.295 2.48 1.202 2.48 2.94l.002 9.214c0 .553-.448 1-1 1h-1.42v1.075h8.92V65.19h-1.42zM147.23 57.393h8.705c.277-4.264-2.815-7.8-7.36-7.8-4.754 0-8.777 3.227-8.777 8.692 0 4.58 4.084 8.182 9.066 8.182 3.504 0 5.892-2.123 7.176-4.272l-.754-.48c-1.21 1.708-3.196 3.43-5.754 3.43-4.083 0-5.36-3.41-5.36-7.233 0-3.82 1.277-7.355 4.147-7.355 1.415 0 2.32.633 2.84 1.484.525.853.613 2.77.636 4.278h-4.565v1.075zM105.715 49.594c-.956 0-1.745.525-2.616 1.395l-4.38 4.378v-5.575h-6.5v1.074h1.418c.554 0 1.002.448 1.002 1V64.19c0 .553-.448 1-1.002 1h-1.42v1.075h8.922v-1.074h-1.42c-.553 0-1-.448-1-1v-6.228c0-1.338 5.297-6.164 5.297-6.164s.36 1.547 1.83 1.547c1.368 0 1.845-1.172 1.845-1.846 0-1.334-1.022-1.906-1.977-1.906"/></g></svg>