<svg xmlns="http://www.w3.org/2000/svg" width="80" height="50" viewBox="0 0 80 50"><g opacity=".4"><path fill="#4D4D4D" d="M33.625 36.896l5.25 4.606 5.25-4.606"/><path opacity=".4" fill="#4D4D4D" d="M33.625 36.896l5.25 4.606 5.25-4.606"/></g><path opacity=".4" fill="#4D4D4D" d="M4 11h70v22H4z"/><g fill="#FFF"><path d="M17.702 23.06h.205c.44.97.984 1.584 1.732 1.584s1.095-.504 1.095-.97c0-.63-.426-.874-1.38-1.197-.77-.268-1.566-.527-1.566-1.52 0-1.008.77-1.646 1.81-1.646.45 0 .844.11 1.11.23l.26-.275h.175v1.654h-.213c-.362-.89-.835-1.38-1.45-1.38-.52 0-.952.34-.952.93 0 .607.465.828 1.347 1.11.732.245 1.513.53 1.513 1.53 0 .85-.504 1.77-1.843 1.77-.434 0-.938-.125-1.26-.29l-.41.322h-.174v-1.85zM24.585 22.162c0-1.662 1.23-2.868 2.788-2.868.544 0 1.017.15 1.355.34l.283-.355h.19v1.85h-.205c-.386-1.016-.914-1.6-1.702-1.6-.89 0-1.66.82-1.66 2.545 0 1.693.944 2.44 1.842 2.44.85 0 1.418-.52 1.765-1.26l.213.104c-.347.787-1.04 1.535-2.245 1.535-1.592 0-2.623-1.094-2.623-2.733zM34.113 24.14c0 .298.15.4.788.424v.197h-2.544v-.196c.662-.023.82-.142.82-.425v-4.097c0-.284-.158-.4-.82-.425v-.197h2.427c1.59 0 2.135.6 2.135 1.3 0 .655-.402 1.15-1.528 1.34v.023c1.08.063 1.308.513 1.41 1.206l.07.566c.095.59.23.685.843.708v.19c-.196.03-.433.054-.614.054-.985 0-1.16-.276-1.222-.977l-.063-.66c-.07-.78-.314-.97-1.182-.97h-.52v1.94zm.583-2.167c1 0 1.22-.417 1.22-1.206 0-.717-.313-1.11-1.3-1.11h-.503v2.315h.583zM40.357 22.107c0-1.694 1.174-2.813 2.6-2.813 1.466 0 2.6 1.08 2.6 2.78 0 1.702-1.174 2.82-2.6 2.82-1.465.002-2.6-1.078-2.6-2.787zm4.152-.016c0-1.866-.63-2.56-1.584-2.56s-1.513.694-1.513 2.56c0 1.876.63 2.57 1.576 2.57.952 0 1.52-.694 1.52-2.57zM48.523 24.564c.662-.023.812-.142.812-.425v-4.097c0-.284-.15-.4-.812-.425v-.197h2.545v.198c-.678.024-.796.134-.796.425v4.482h.646c1.07 0 1.44-.417 1.874-1.615l.205.008-.062 1.843h-4.412v-.196zM55.824 24.564c.662-.023.812-.142.812-.425v-4.097c0-.284-.15-.4-.812-.425v-.197h2.544v.198c-.677.024-.795.134-.795.425v4.482h.646c1.07 0 1.44-.417 1.874-1.615l.204.008-.062 1.843h-4.41v-.196z"/></g><path fill="none" stroke="#EDECEB" stroke-miterlimit="10" d="M8.5 14.5h61v15h-61z"/></svg>