<svg xmlns="http://www.w3.org/2000/svg" width="64" height="64" viewBox="0 0 64 64"><ellipse fill="gray" cx="32" cy="58.053" rx="15" ry="3.947"/><path fill="#99948F" d="M52 22.004C52 33.047 32 58.08 32 58.08S12 33.047 12 22.004C12 10.954 20.958 2 32 2c11.044 0 20 8.955 20 20.004z"/><linearGradient id="a" gradientUnits="userSpaceOnUse" x1="42" y1="2.465" x2="42" y2="58.545"><stop offset=".14" stop-color="#99948F"/><stop offset=".94" stop-color="#3D3935" stop-opacity=".6"/></linearGradient><path fill="url(#a)" d="M32 2.465V58.545S52 33.512 52 22.47c0-11.05-8.956-20.005-20-20.005z"/><linearGradient id="b" gradientUnits="userSpaceOnUse" x1="41.023" y1="19.724" x2="22.978" y2="26.291"><stop offset="0" stop-color="#B6B1AA"/><stop offset=".94" stop-color="#3D3935"/></linearGradient><path fill="url(#b)" d="M41.6 23.004c0 5.305-4.3 9.6-9.595 9.6-5.302 0-9.604-4.295-9.604-9.6 0-5.3 4.304-9.592 9.605-9.592 5.295 0 9.595 4.293 9.595 9.592z"/><path fill="#FFF" d="M39.2 23.006c0 3.98-3.226 7.2-7.197 7.2-3.975 0-7.203-3.222-7.203-7.2 0-3.975 3.23-7.193 7.203-7.193 3.972 0 7.197 3.218 7.197 7.193z"/></svg>