<svg xmlns="http://www.w3.org/2000/svg" width="64" height="64" viewBox="0 0 64 64"><ellipse fill="gray" cx="32" cy="56.947" rx="15" ry="3.947"/><path fill="#DB725A" d="M52 21.564C52 32.607 32 57.64 32 57.64S12 32.607 12 21.564C12 10.514 20.958 1.56 32 1.56c11.044 0 20 8.956 20 20.004z"/><linearGradient id="a" gradientUnits="userSpaceOnUse" x1="42" y1="2.025" x2="42" y2="58.105"><stop offset=".157" stop-color="#DB725A"/><stop offset="1" stop-color="#BE725A"/></linearGradient><path fill="url(#a)" d="M32 2.025V58.105S52 33.072 52 22.03c0-11.05-8.956-20.005-20-20.005z"/><linearGradient id="b" gradientUnits="userSpaceOnUse" x1="22.4" y1="22.568" x2="41.6" y2="22.568"><stop offset=".363" stop-color="#A56550"/><stop offset=".798" stop-color="#DB725A"/></linearGradient><path fill="url(#b)" d="M41.6 22.564c0 5.305-4.3 9.6-9.595 9.6-5.302 0-9.604-4.295-9.604-9.6 0-5.3 4.304-9.592 9.605-9.592 5.295 0 9.595 4.294 9.595 9.592z"/><path fill="#FFF" d="M39.2 22.566c0 3.98-3.226 7.2-7.197 7.2-3.975 0-7.203-3.222-7.203-7.2 0-3.975 3.23-7.193 7.203-7.193 3.972 0 7.197 3.22 7.197 7.193z"/></svg>