<svg xmlns="http://www.w3.org/2000/svg" width="210" height="90" viewBox="0 0 210 90"><g fill="gray"><path d="M203.998 84H4V9.885h21.416l.18.625c.006.03.933 4.604 14.002 4.604 5.835 0 13.46-1.96 22.285-4.236C73.78 7.814 88.59 4 104 4c15.408 0 30.218 3.814 42.115 6.878 8.827 2.275 16.45 4.236 22.286 4.236 13.068 0 13.996-4.573 14.005-4.62l.187-.595.52-.016H204L203.998 84zM5.666 82.333h196.667V11.5H184c-.644 1.517-3.79 5.044-15.6 5.044-6.016 0-13.72-1.984-22.642-4.282C133.324 9.06 119.228 5.43 104 5.43c-15.23 0-29.323 3.63-41.76 6.832-8.92 2.297-16.626 4.28-22.642 4.28-11.807 0-14.122-3.526-14.766-5.043H5.666v70.833z"/><path d="M79.89 76.39v-3.692h-1.807v3.69h-.987v-7.92h.987v3.365h1.806v-3.365h.986v7.92M88.076 76.39v-7.922h3.49v.885h-2.504v2.358h2.19v.898h-2.19v2.894h2.583v.887M101.21 76.39l-.278-1.528h-1.84l-.27 1.527h-1.02l1.705-7.922h.986l1.75 7.92h-1.032zm-1.22-6.452l-.73 4.074h1.504l-.774-4.074zM108.648 76.39v-7.922h1.01v7.034h2.323v.887M119.338 69.353v7.035h-.975v-7.035h-1.504v-.884h3.982v.883M129.916 76.39v-3.692h-1.806v3.69h-.987v-7.92h.987v3.365h1.806v-3.365h.99v7.92M127.18 55.198l-5.403-6.52c-.515-.548-1.225-.897-1.976-.897h-1.69l5.713-5.64.064-.056c.513-.508 1.208-.792 1.93-.792h2.118v-1.074h-8.52v1.074h2.075c.54 0 .81.652.43 1.033l-.186.194-7.646 7.546v-16.76h-6.501v1.072h1.42c.553 0 1 .447 1 1v19.813c0 .555-.447 1.002-1 1.002h-1.42v1.074H114.088V53.47c0-1.09.432-2.132 1.2-2.905l2.02-1.993 5.495 6.63c.328.393.047.99-.468.99h-1.33v.573h-.004v.5H130.923v-1.073h-1.63c-.817 0-1.593-.364-2.114-.994M36.895 55.19V35.38c0-.554.447-1 1-1h2.63v-1.074H29.184v1.073h2.63c.552 0 1 .447 1 1V55.19c0 .554-.448 1-1 1h-2.63v1.074h11.343V56.19h-2.63c-.554.002-1-.445-1-1"/><path d="M45.71 33.305v1.073h2.63c.552 0 1 .45 1 1v9.288h-9.442v1.24h9.442v9.287c0 .552-.448 1-1 1h-2.63v1.073h11.343v-1.074h-2.63c-.553 0-1-.447-1-1V35.38c0-.552.447-1 1-1h2.63v-1.074H45.71zM78.08 55.19v-9.22s.207-2.867-1.968-4.227c-2.177-1.362-6.034-1.646-8.963-.142-1.28.66-2.382 1.686-2.382 2.91 0 1.23 1.015 2.01 1.99 1.932.922-.072 1.665-.85 1.7-1.776.038-.954-.65-1.75-1.554-1.896.138-.078.284-.15.446-.22 2.33-.985 4.763-.55 5.784.58 1.247 1.38 1.37 4.364-1.13 5.092-1.887.547-5.273 1.218-6.25 1.745-1.486.8-2.086 2.186-2.086 3.595 0 1.904 1.683 3.7 4.645 3.7.91 0 1.877-.087 2.684-.215v-.975c-.354.04-.706.065-.977.065-1.94 0-2.636-1.517-2.636-2.996 0-2.49 1.79-2.804 6.617-4.478v8.601h6.5v-1.072h-1.42c-.55.002-1-.445-1-1M177.396 56.192c-.553 0-1-.447-1-1v-9.5c0-6.064-5.53-5.895-7.697-3.727-2.144 2.144-4.837 4.878-4.837 4.878V40.79h-6.503v1.075h1.42c.553 0 1 .448 1 1.253v12.326c0 .3-.447.747-1 .747h-1.42v1.075h8.923V56.19h-1.42c-.553 0-1-.446-1-1v-4.923c0-1.09.662-2.155 1.203-2.773.47-.537 3.467-4.206 4.767-4.458 1.52-.294 2.48 1.203 2.48 2.94l.002 9.214c0 .554-.448 1-1 1h-1.42v1.075h8.92V56.19h-1.42zM142.23 48.393h8.705c.277-4.264-2.815-7.8-7.36-7.8-4.754 0-8.777 3.227-8.777 8.692 0 4.58 4.084 8.182 9.066 8.182 3.504 0 5.892-2.122 7.176-4.272l-.754-.48c-1.21 1.708-3.196 3.432-5.754 3.432-4.083 0-5.36-3.413-5.36-7.235 0-3.82 1.277-7.355 4.147-7.355 1.415 0 2.32.63 2.84 1.484.525.852.613 2.768.636 4.278h-4.565v1.075zM100.713 40.593c-.955 0-1.744.525-2.615 1.395l-4.38 4.378V40.79h-6.5v1.075h1.42c.552 0 1 .448 1 1V55.19c0 .555-.448 1.002-1 1.002h-1.42v1.074h8.92v-1.074h-1.42c-.552 0-1-.447-1-1v-6.228c0-1.338 5.298-6.164 5.298-6.164s.36 1.546 1.83 1.546c1.368 0 1.844-1.172 1.844-1.846 0-1.334-1.02-1.907-1.977-1.907"/></g></svg>