<svg xmlns="http://www.w3.org/2000/svg" width="64" height="64" viewBox="0 0 64 64"><path fill="gray" d="M55.293 54.207l-11.96-11.77c3.128-3.4 5.05-7.898 5.05-12.848 0-10.595-8.72-19.177-19.477-19.177-10.766 0-19.492 8.582-19.492 19.176 0 10.585 8.727 19.173 19.492 19.173 4.643 0 8.908-1.607 12.258-4.287l12.004 11.816 2.125-2.085zM28.906 45.81c-9.113 0-16.498-7.263-16.498-16.22 0-8.963 7.385-16.23 16.498-16.23 9.098 0 16.484 7.267 16.484 16.23 0 8.957-7.386 16.22-16.484 16.22z"/><path fill="none" stroke="gray" stroke-width="1.447" stroke-miterlimit="10" d="M55.293 54.207l-11.96-11.77c3.128-3.4 5.05-7.898 5.05-12.848 0-10.595-8.72-19.177-19.477-19.177-10.766 0-19.492 8.582-19.492 19.176 0 10.585 8.727 19.173 19.492 19.173 4.643 0 8.908-1.607 12.258-4.287l12.004 11.816 2.125-2.085zM28.906 45.81c-9.113 0-16.498-7.263-16.498-16.22 0-8.963 7.385-16.23 16.498-16.23 9.098 0 16.484 7.267 16.484 16.23 0 8.957-7.386 16.22-16.484 16.22z"/></svg>