<svg xmlns="http://www.w3.org/2000/svg" width="64" height="64" viewBox="0 0 64 64"><path fill="#DB725A" d="M17.5 12.745c.606 0 1.302.02 2.256.062 4.44.2 8.176 1.188 11.787 2.14 3.77.996 7.667 2.025 12.018 2.025 2.08 0 4.15-.236 6.24-.715v23.76c-2.138.687-4.162 1.014-6.224 1.014-3.234 0-6.288-.802-9.824-1.73-3.672-.966-7.834-2.06-12.888-2.385-.862-.056-1.9-.086-3-.086-1.74 0-3.43.07-4.664.194V13.342c1.586-.492 2.776-.597 4.3-.597m0-4.2c-2.916 0-5.012.396-8.5 1.904v45.276h4.168V41.254c1.1-.144 2.928-.226 4.696-.226.97 0 1.922.024 2.726.077 9.418.605 15.522 4.125 22.986 4.125 3.123 0 6.482-.616 10.424-2.318V10.45c-3.938 1.704-7.31 2.32-10.44 2.32-7.69 0-13.936-3.722-23.614-4.16-.895-.04-1.698-.065-2.446-.065z"/></svg>