<svg xmlns="http://www.w3.org/2000/svg" width="64" height="64" viewBox="0 0 64 64"><path fill="#DB725A" d="M52 23.73c0 11.044-20 36.077-20 36.077S12 34.774 12 23.73c0-11.048 8.958-20.003 20-20.003 11.044 0 20 8.956 20 20.004z"/><linearGradient id="a" gradientUnits="userSpaceOnUse" x1="42" y1="4.192" x2="42" y2="60.273"><stop offset=".157" stop-color="#DB725A"/><stop offset="1" stop-color="#BE725A"/></linearGradient><path fill="url(#a)" d="M32 4.192V60.272S52 35.24 52 24.196c0-11.05-8.956-20.004-20-20.004z"/><linearGradient id="b" gradientUnits="userSpaceOnUse" x1="22.4" y1="24.735" x2="41.6" y2="24.735"><stop offset=".363" stop-color="#A56550"/><stop offset=".798" stop-color="#DB725A"/></linearGradient><path fill="url(#b)" d="M41.6 24.73c0 5.306-4.3 9.6-9.595 9.6-5.302 0-9.604-4.294-9.604-9.6 0-5.298 4.304-9.59 9.605-9.59 5.295 0 9.595 4.293 9.595 9.59z"/><path fill="#FFF" d="M39.2 24.733c0 3.98-3.226 7.2-7.197 7.2-3.975 0-7.203-3.222-7.203-7.2 0-3.975 3.23-7.193 7.203-7.193 3.972 0 7.197 3.22 7.197 7.193z"/></svg>