<svg xmlns="http://www.w3.org/2000/svg" width="210" height="90" viewBox="0 0 210 90"><g fill="gray"><path d="M203.998 85H4V10.885h21.416l.18.625c.006.03.933 4.604 14.002 4.604 5.835 0 13.46-1.96 22.285-4.236C73.78 8.814 88.59 5 104 5c15.408 0 30.218 3.814 42.115 6.878 8.827 2.275 16.45 4.236 22.286 4.236 13.068 0 13.996-4.573 14.005-4.62l.187-.595.52-.016H204L203.998 85zM5.666 83.333h196.667V12.5H184c-.644 1.517-3.79 5.044-15.6 5.044-6.016 0-13.72-1.984-22.642-4.282C133.324 10.06 119.228 6.43 104 6.43c-15.23 0-29.323 3.63-41.76 6.833-8.92 2.297-16.626 4.28-22.642 4.28-11.807 0-14.122-3.526-14.766-5.043H5.666v70.833z"/><path d="M127.18 56.198l-5.403-6.52c-.515-.548-1.225-.897-1.976-.897h-1.69l5.713-5.64.064-.056c.513-.508 1.208-.792 1.93-.792h2.118v-1.074h-8.52v1.074h2.075c.54 0 .81.652.43 1.033l-.186.194-7.646 7.546v-16.76h-6.501v1.072h1.42c.553 0 1 .447 1 1v19.813c0 .555-.447 1.002-1 1.002h-1.42v1.074H114.088V54.47c0-1.09.432-2.13 1.2-2.904l2.02-1.993 5.495 6.63c.328.393.047.99-.468.99h-1.33v.573h-.004v.5H130.923v-1.073h-1.63c-.817 0-1.593-.365-2.114-.995M36.895 56.19V36.38c0-.555.447-1.002 1-1.002h2.63v-1.073H29.184v1.073h2.63c.552 0 1 .447 1 1v19.813c0 .555-.448 1.002-1 1.002h-2.63v1.073h11.343v-1.073h-2.63c-.554 0-1-.447-1-1"/><path d="M45.71 34.305v1.073h2.63c.552 0 1 .45 1 1v9.288h-9.442v1.24h9.442v9.287c0 .552-.448 1-1 1h-2.63v1.073h11.343v-1.074h-2.63c-.553 0-1-.447-1-1V36.38c0-.553.447-1.002 1-1.002h2.63v-1.073H45.71zM78.08 56.19v-9.22s.207-2.866-1.968-4.226c-2.177-1.362-6.034-1.646-8.963-.142-1.28.658-2.382 1.685-2.382 2.91 0 1.228 1.015 2.01 1.99 1.93.922-.07 1.665-.85 1.7-1.775.038-.954-.65-1.75-1.554-1.896.138-.077.284-.15.446-.22 2.33-.984 4.763-.55 5.784.582 1.247 1.38 1.37 4.363-1.13 5.09-1.887.548-5.273 1.22-6.25 1.746-1.486.8-2.086 2.186-2.086 3.595 0 1.904 1.683 3.7 4.645 3.7.91 0 1.877-.087 2.684-.215v-.975c-.354.04-.706.065-.977.065-1.94 0-2.636-1.517-2.636-2.996 0-2.49 1.79-2.805 6.617-4.48v8.602h6.5v-1.072h-1.42c-.55 0-1-.447-1-1M177.396 57.192c-.553 0-1-.447-1-1v-9.5c0-6.064-5.53-5.895-7.697-3.727-2.144 2.144-4.837 4.878-4.837 4.878V41.79h-6.503v1.075h1.42c.553 0 1 .448 1 1.253v12.326c0 .3-.447.747-1 .747h-1.42v1.075h8.923V57.19h-1.42c-.553 0-1-.446-1-1v-4.923c0-1.09.662-2.155 1.203-2.773.47-.537 3.467-4.206 4.767-4.458 1.52-.294 2.48 1.203 2.48 2.94l.002 9.214c0 .554-.448 1-1 1h-1.42v1.075h8.92V57.19h-1.42zM142.23 49.393h8.705c.277-4.264-2.815-7.8-7.36-7.8-4.754 0-8.777 3.227-8.777 8.692 0 4.58 4.084 8.182 9.066 8.182 3.504 0 5.892-2.122 7.176-4.272l-.754-.48c-1.21 1.708-3.196 3.432-5.754 3.432-4.083 0-5.36-3.413-5.36-7.235 0-3.82 1.277-7.355 4.147-7.355 1.415 0 2.32.63 2.84 1.484.525.852.613 2.768.636 4.278h-4.565v1.075zM100.713 41.594c-.955 0-1.744.525-2.615 1.395l-4.38 4.377v-5.575h-6.5v1.074h1.42c.552 0 1 .448 1 1v12.326c0 .554-.448 1-1 1h-1.42v1.075h8.92v-1.074h-1.42c-.552 0-1-.447-1-1v-6.228c0-1.338 5.298-6.164 5.298-6.164s.36 1.547 1.83 1.547c1.368 0 1.844-1.172 1.844-1.846 0-1.333-1.02-1.906-1.977-1.906"/></g></svg>