<svg xmlns="http://www.w3.org/2000/svg" width="64" height="64" viewBox="0 0 64 64"><path fill="#DE725A" d="M57 51.836H7V17.59h5.187s.27 1.266 3.438 1.266c1.413 0 3.26-.476 5.396-1.025 2.885-.74 6.472-1.665 10.205-1.665 3.73 0 7.317.925 10.2 1.666 2.14.55 3.983 1.026 5.398 1.026 3.166 0 3.438-1.268 3.438-1.268l6.74.002v34.246z"/><g fill="#ECEAE9"><path d="M25.642 44.044V26.98c0-.476.386-.86.862-.86h2.263v-.923H19v.922h2.267c.475 0 .86.385.86.86v17.063c0 .476-.386.86-.86.86H19v.924h9.767v-.924h-2.263c-.477 0-.862-.383-.862-.86"/><path d="M33.23 25.197v.922h2.266c.477 0 .862.385.862.86v7.998h-8.13v1.068h8.13v7.997c0 .476-.386.86-.862.86H33.23v.926H43v-.927h-2.267c-.477 0-.86-.385-.86-.86V26.98c0-.476.384-.86.86-.86H43v-.923h-9.77z"/></g></svg>