<svg xmlns="http://www.w3.org/2000/svg" viewBox="0 0 64 64"><path fill="#DF715B" d="M43.7 15.9c-6 10.7-11.9 21.5-17.9 32.2l-1.4 2.5c-.2.3-.5.5-.8.5-.5 0-3.2-1.6-3.8-2-.3-.2-.5-.5-.5-.8 0-.5 1-2 1.3-2.5C15 43.3 10.4 39.1 7.1 34c-.4-.6-.6-1.3-.6-2s.2-1.4.6-2c5.6-8.6 14.4-14.4 24.9-14.4 1.7 0 3.4.2 5.1.5l1.5-2.8c.2-.3.5-.5.8-.5.5 0 3.2 1.6 3.8 2 .3.2.5.5.5.8v.3zM24.5 38.7c-3.3-2.4-5.3-6.2-5.3-10.3 0-2.2.6-4.5 1.7-6.4-4.4 2.3-8.1 5.9-10.8 10 3 4.6 7.1 8.4 12.1 10.7l2.3-4zm7.5-19c-4.8 0-8.6 3.9-8.6 8.6 0 .7.6 1.4 1.4 1.4s1.4-.6 1.4-1.4c0-3.3 2.7-5.9 5.9-5.9.7 0 1.4-.6 1.4-1.4s-.8-1.3-1.5-1.3zM56.9 34c-.9 1.5-2 2.8-3.1 4.1-5.6 6.4-13.2 10.3-21.8 10.3l2.1-3.8c8.3-.7 15.3-5.7 19.7-12.6-2.1-3.3-4.8-6.1-8-8.4l1.8-3.2c3.5 2.4 7.1 5.9 9.3 9.6.4.6.6 1.2.6 2s-.2 1.3-.6 2zm-20.3 6.2l8-14.3c.1.8.2 1.6.2 2.4-.1 5.3-3.3 10.1-8.2 11.9z"/></svg>